<svg xmlns="http://www.w3.org/2000/svg" width="430" height="140" viewBox="0 0 430 140"><defs><style>.a{fill:#444885;}.b,.c{fill:none;stroke:#444885;stroke-miterlimit:10;}.b{stroke-width:3px;}.c{stroke-width:10px;}</style></defs><title>merchant</title><path class="a" d="M70.28,145.74V106.3h47.46a9.4,9.4,0,0,1,5,1.36,10.42,10.42,0,0,1,3.57,3.6,9.5,9.5,0,0,1,1.32,4.9v29.58H117.27v-29H104.21v29H93.74v-29H80.68v29Z" transform="translate(-35 -55)"/><path class="a" d="M141.54,144.38a10.6,10.6,0,0,1-3.6-3.6,9.26,9.26,0,0,1-1.36-4.9V116.16a9.26,9.26,0,0,1,1.36-4.9,10.6,10.6,0,0,1,3.6-3.6,9.26,9.26,0,0,1,4.9-1.36H166.7a9.4,9.4,0,0,1,5,1.36,10.42,10.42,0,0,1,3.57,3.6,9.5,9.5,0,0,1,1.32,4.9v15.1H147v4.08h29.58v10.4H146.44A9.26,9.26,0,0,1,141.54,144.38ZM147,122.14h19.18V116.7H147Z" transform="translate(-35 -55)"/><path class="a" d="M183.36,145.74V116.16a9.26,9.26,0,0,1,1.36-4.9,10.63,10.63,0,0,1,3.61-3.6,9.34,9.34,0,0,1,5-1.36h21.76v10.4H193.77v29Z" transform="translate(-35 -55)"/><path class="a" d="M224,144.38a10.69,10.69,0,0,1-3.6-3.6,9.26,9.26,0,0,1-1.36-4.9V116.16a9.26,9.26,0,0,1,1.36-4.9,10.69,10.69,0,0,1,3.6-3.6,9.26,9.26,0,0,1,4.9-1.36H259v10.4H229.46v18.64h29.59v10.4H228.92A9.26,9.26,0,0,1,224,144.38Z" transform="translate(-35 -55)"/><path class="a" d="M265.5,145.74V93.38h10.41V106.3h19.72a9.2,9.2,0,0,1,4.89,1.36,10.63,10.63,0,0,1,3.61,3.6,9.35,9.35,0,0,1,1.36,4.9v29.58H295.08v-29H275.91v29Z" transform="translate(-35 -55)"/><path class="a" d="M321,145.74a9.34,9.34,0,0,1-5-1.36,10.26,10.26,0,0,1-3.57-3.6,9.42,9.42,0,0,1-1.33-4.9v-15.1h29.58V116.7H311.13V106.3h30.13a9.37,9.37,0,0,1,5,1.36,10.26,10.26,0,0,1,3.57,3.6,9.51,9.51,0,0,1,1.33,4.9v29.58Zm19.72-10.4V129.9H321.54v5.44Z" transform="translate(-35 -55)"/><path class="a" d="M357.44,145.74V106.3h30.12a9.38,9.38,0,0,1,5,1.36,10.42,10.42,0,0,1,3.57,3.6,9.5,9.5,0,0,1,1.32,4.9v29.58H387v-29H367.84v29Z" transform="translate(-35 -55)"/><path class="a" d="M409.66,144.38a10.6,10.6,0,0,1-3.6-3.6,9.26,9.26,0,0,1-1.36-4.9V94.6h10.4v11.7h14.62v10.4H415.1v18.64h14.62v10.4H414.63A9.38,9.38,0,0,1,409.66,144.38Z" transform="translate(-35 -55)"/><rect class="b" x="23.14" y="20" width="383.71" height="100"/><rect class="c" x="5" y="5" width="420" height="130"/><rect class="a" x="165.46" y="7.23" width="8" height="12.28"/><rect class="a" x="211" y="7.23" width="8" height="12.28"/><rect class="a" x="74.37" y="7.23" width="8" height="12.28"/><rect class="a" x="28.83" y="7.23" width="8" height="12.28"/><rect class="a" x="119.91" y="7.23" width="8" height="12.28"/><rect class="a" x="256.54" y="7.23" width="8" height="12.28"/><rect class="a" x="302.09" y="7.23" width="8" height="12.28"/><rect class="a" x="347.63" y="7.23" width="8" height="12.28"/><rect class="a" x="393.17" y="7.23" width="8" height="12.28"/><rect class="a" x="165.46" y="120" width="8" height="12.28"/><rect class="a" x="211" y="120" width="8" height="12.28"/><rect class="a" x="74.37" y="120" width="8" height="12.28"/><rect class="a" x="28.83" y="120" width="8" height="12.28"/><rect class="a" x="119.91" y="120" width="8" height="12.28"/><rect class="a" x="256.54" y="120" width="8" height="12.28"/><rect class="a" x="302.09" y="120" width="8" height="12.28"/><rect class="a" x="347.63" y="120" width="8" height="12.28"/><rect class="a" x="393.17" y="120" width="8" height="12.28"/></svg>